<svg aria-hidden="true" style="position: absolute; width: 0; height: 0; overflow: hidden;" version="1.1" xmlns="http://www.w3.org/2000/svg" xmlns:xlink="http://www.w3.org/1999/xlink">
<defs>
<symbol id="icon-logo" viewBox="0 0 70 56">
  <path d="M39.7572 17.0343L38.4269 15.8804C36.5172 14.1795 34.1697 13.25 31.75 13.25C29.3303 13.25 26.9828 14.1795 25.0731 15.8804L23.7428 17.0343C22.7348 17.9471 21.4211 18.4375 20.0625 18.4375H18.375C14.6943 18.4375 11.8125 21.3193 11.8125 25V40.25C11.8125 43.9307 14.6943 46.8125 18.375 46.8125H45.125C48.8057 46.8125 51.6875 43.9307 51.6875 40.25V25C51.6875 21.3193 48.8057 18.4375 45.125 18.4375H43.4375C42.0789 18.4375 40.7652 17.9471 39.7572 17.0343Z" fill="currentColor"/>
  <path d="M45.125 15.3125C48.5865 15.3125 51.6875 17.8837 51.6875 22.25V40.25C51.6875 45.1435 48.5185 48.4375 45.125 48.4375H18.375C14.9815 48.4375 11.8125 45.1435 11.8125 40.25V22.25C11.8125 17.8837 14.9135 15.3125 18.375 15.3125H20.0625C20.9894 15.3125 21.8388 14.9749 22.5111 14.3553L23.8415 13.2015C26.0668 11.1977 28.8429 10.1875 31.75 10.1875C34.6571 10.1875 37.4332 11.1977 39.6585 13.2015L40.9889 14.3553C41.6612 14.9749 42.5106 15.3125 43.4375 15.3125H45.125ZM31.75 11.8125C29.1723 11.8125 26.7566 12.7256 24.854 14.4579L23.5236 15.6117C22.426 16.5991 20.9344 17.1875 20.0625 17.1875H18.375C15.2354 17.1875 13.4375 19.2648 13.4375 22.25V40.25C13.4375 44.0936 15.9632 46.8125 18.375 46.8125H45.125C47.5368 46.8125 50.0625 44.0936 50.0625 40.25V22.25C50.0625 19.2648 48.2646 17.1875 45.125 17.1875H43.4375C42.5656 17.1875 41.074 16.5991 39.9764 15.6117L38.646 14.4579C36.7434 12.7256 34.3277 11.8125 31.75 11.8125Z" fill="currentColor"/>
</symbol>
</defs>
</svg>
