<svg aria-hidden="true" style="position: absolute; width: 0; height: 0; overflow: hidden;" version="1.1" xmlns="http://www.w3.org/2000/svg" xmlns:xlink="http://www.w3.org/1999/xlink">
<defs>
<symbol id="icon-social-facebook" viewBox="0 0 32 32">
<path fill="#f4f4fd" style="fill: var(--color4, #f4f4fd)" d="M21.329 5.313h2.921v-5.088c-0.504-0.069-2.237-0.225-4.256-0.225-4.212 0-7.097 2.649-7.097 7.519v4.481h-4.648v5.688h4.648v14.312h5.699v-14.311h4.46l0.708-5.688h-5.169v-3.919c0.001-1.644 0.444-2.769 2.735-2.769z"></path>
</symbol>
<symbol id="icon-social-instagram" viewBox="0 0 32 32">
<path fill="#f4f4fd" style="fill: var(--color4, #f4f4fd)" d="M31.969 9.408c-0.075-1.7-0.35-2.869-0.744-3.882-0.406-1.075-1.031-2.038-1.85-2.838-0.8-0.813-1.769-1.444-2.832-1.844-1.019-0.394-2.182-0.669-3.882-0.744-1.713-0.081-2.257-0.1-6.601-0.1s-4.888 0.019-6.595 0.094c-1.7 0.075-2.869 0.35-3.882 0.744-1.075 0.406-2.038 1.031-2.838 1.85-0.813 0.8-1.444 1.769-1.844 2.832-0.394 1.019-0.669 2.182-0.744 3.882-0.081 1.713-0.1 2.257-0.1 6.601s0.019 4.888 0.094 6.595c0.075 1.7 0.35 2.869 0.744 3.882 0.406 1.075 1.038 2.038 1.85 2.838 0.8 0.813 1.769 1.444 2.832 1.844 1.019 0.394 2.182 0.669 3.882 0.744 1.706 0.075 2.25 0.094 6.595 0.094s4.888-0.018 6.595-0.094c1.7-0.075 2.869-0.35 3.882-0.744 2.151-0.831 3.851-2.532 4.682-4.682 0.394-1.019 0.669-2.182 0.744-3.882 0.075-1.707 0.094-2.251 0.094-6.595s-0.006-4.888-0.081-6.595zM29.087 22.473c-0.069 1.563-0.331 2.407-0.55 2.969-0.538 1.394-1.644 2.501-3.038 3.038-0.563 0.219-1.413 0.481-2.969 0.55-1.688 0.075-2.194 0.094-6.464 0.094s-4.782-0.018-6.464-0.094c-1.563-0.069-2.407-0.331-2.969-0.55-0.694-0.256-1.325-0.663-1.838-1.194-0.531-0.519-0.938-1.144-1.194-1.838-0.219-0.563-0.481-1.413-0.55-2.969-0.075-1.688-0.094-2.194-0.094-6.464s0.019-4.782 0.094-6.464c0.069-1.563 0.331-2.407 0.55-2.969 0.256-0.694 0.663-1.325 1.2-1.838 0.519-0.531 1.144-0.938 1.838-1.194 0.563-0.219 1.413-0.481 2.969-0.55 1.688-0.075 2.194-0.094 6.464-0.094 4.276 0 4.782 0.019 6.464 0.094 1.563 0.069 2.407 0.331 2.969 0.55 0.694 0.256 1.325 0.662 1.838 1.194 0.531 0.519 0.938 1.144 1.194 1.838 0.219 0.563 0.481 1.413 0.55 2.969 0.075 1.688 0.094 2.194 0.094 6.464s-0.019 4.77-0.094 6.457z"></path>
<path fill="#f4f4fd" style="fill: var(--color4, #f4f4fd)" d="M16.059 7.782c-4.538 0-8.22 3.682-8.22 8.22s3.682 8.22 8.22 8.22c4.538 0 8.22-3.682 8.22-8.22s-3.682-8.22-8.22-8.22zM16.059 21.335c-2.944 0-5.332-2.388-5.332-5.332s2.388-5.332 5.332-5.332c2.944 0 5.332 2.388 5.332 5.332s-2.388 5.332-5.332 5.332z"></path>
<path fill="#f4f4fd" style="fill: var(--color4, #f4f4fd)" d="M26.524 7.457c0 1.060-0.859 1.919-1.919 1.919s-1.919-0.859-1.919-1.919c0-1.060 0.859-1.919 1.919-1.919s1.919 0.859 1.919 1.919z"></path>
</symbol>
<symbol id="icon-social-linkedin" viewBox="0 0 32 32">
<path fill="#f4f4fd" style="fill: var(--color4, #f4f4fd)" d="M31.992 32v-0.001h0.008v-11.736c0-5.741-1.236-10.164-7.948-10.164-3.227 0-5.392 1.771-6.276 3.449h-0.093v-2.913h-6.364v21.364h6.627v-10.579c0-2.785 0.528-5.479 3.977-5.479 3.399 0 3.449 3.179 3.449 5.657v10.401h6.62z"></path>
<path fill="#f4f4fd" style="fill: var(--color4, #f4f4fd)" d="M0.528 10.636h6.635v21.364h-6.635v-21.364z"></path>
<path fill="#f4f4fd" style="fill: var(--color4, #f4f4fd)" d="M3.843-0c-2.121 0-3.843 1.721-3.843 3.843s1.721 3.879 3.843 3.879c2.121 0 3.843-1.757 3.843-3.879-0.001-2.121-1.723-3.843-3.843-3.843v0z"></path>
</symbol>
<symbol id="icon-social-twitter" viewBox="0 0 32 32">
<path fill="#f4f4fd" style="fill: var(--color4, #f4f4fd)" d="M32 6.078c-1.19 0.522-2.458 0.868-3.78 1.036 1.36-0.812 2.398-2.088 2.886-3.626-1.268 0.756-2.668 1.29-4.16 1.588-1.204-1.282-2.92-2.076-4.792-2.076-3.632 0-6.556 2.948-6.556 6.562 0 0.52 0.044 1.020 0.152 1.496-5.454-0.266-10.28-2.88-13.522-6.862-0.566 0.982-0.898 2.106-0.898 3.316 0 2.272 1.17 4.286 2.914 5.452-1.054-0.020-2.088-0.326-2.964-0.808 0 0.020 0 0.046 0 0.072 0 3.188 2.274 5.836 5.256 6.446-0.534 0.146-1.116 0.216-1.72 0.216-0.42 0-0.844-0.024-1.242-0.112 0.85 2.598 3.262 4.508 6.13 4.57-2.232 1.746-5.066 2.798-8.134 2.798-0.538 0-1.054-0.024-1.57-0.090 2.906 1.874 6.35 2.944 10.064 2.944 12.072 0 18.672-10 18.672-18.668 0-0.29-0.010-0.57-0.024-0.848 1.302-0.924 2.396-2.078 3.288-3.406z"></path>
</symbol>
<symbol id="icon-close" viewBox="0 0 32 32">
<path d="M32 3.223l-3.223-3.223-12.777 12.777-12.777-12.777-3.223 3.223 12.777 12.777-12.777 12.777 3.223 3.223 12.777-12.777 12.777 12.777 3.223-3.223-12.777-12.777 12.777-12.777z"></path>
</symbol>
<symbol id="icon-name" viewBox="0 0 32 32">
<path d="M16 16c2.947 0 5.333-2.387 5.333-5.333s-2.387-5.333-5.333-5.333c-2.947 0-5.333 2.387-5.333 5.333s2.387 5.333 5.333 5.333zM16 18.667c-3.56 0-10.667 1.787-10.667 5.333v1.333c0 0.733 0.6 1.333 1.333 1.333h18.667c0.733 0 1.333-0.6 1.333-1.333v-1.333c0-3.547-7.107-5.333-10.667-5.333z"></path>
</symbol>
<symbol id="icon-subscribe" viewBox="0 0 32 32">
<path fill="#fff" style="fill: var(--color1, #fff)" d="M32 2.667l-32 15 10.227 3.156 15.773-12.323-11.998 13.488 0.010 0.003-0.012-0.003v7.345l5.735-5.576 7.265 2.242 5-23.333z"></path>
</symbol>
<symbol id="icon-email" viewBox="0 0 24 32">
<path d="M20 8h-16c-1.1 0-1.99 0.9-1.99 2l-0.010 12c0 1.1 0.9 2 2 2h16c1.1 0 2-0.9 2-2v-12c0-1.1-0.9-2-2-2zM19.6 12.25l-7.070 4.42c-0.32 0.2-0.74 0.2-1.060 0l-7.070-4.42c-0.25-0.16-0.4-0.43-0.4-0.72 0-0.67 0.73-1.070 1.3-0.72l6.7 4.19 6.7-4.19c0.57-0.35 1.3 0.050 1.3 0.72 0 0.29-0.15 0.56-0.4 0.72z"></path>
</symbol>
<symbol id="icon-phone" viewBox="0 0 24 32">
<path d="M19.635 18.487l-2.451-0.28c-0.589-0.067-1.167 0.135-1.582 0.55l-1.775 1.775c-2.731-1.389-4.969-3.618-6.359-6.359l1.785-1.785c0.415-0.415 0.618-0.994 0.55-1.582l-0.28-2.432c-0.116-0.975-0.936-1.708-1.92-1.708h-1.669c-1.090 0-1.997 0.907-1.93 1.997 0.511 8.24 7.102 14.821 15.332 15.332 1.090 0.068 1.997-0.839 1.997-1.93v-1.669c0.010-0.975-0.724-1.795-1.698-1.911z"></path>
</symbol>
<symbol id="icon-vector" viewBox="0 0 40 32">
<path d="M33.782 1.020c0.691-0.662 1.611-1.027 2.565-1.020s1.869 0.387 2.55 1.059c0.681 0.672 1.076 1.584 1.101 2.543s-0.321 1.891-0.966 2.598l-19.578 24.617c-0.337 0.365-0.743 0.657-1.195 0.86s-0.939 0.312-1.434 0.322c-0.495 0.009-0.986-0.082-1.445-0.268s-0.876-0.463-1.226-0.815l-12.984-13.054c-0.362-0.339-0.652-0.747-0.853-1.201s-0.309-0.944-0.318-1.441 0.082-0.99 0.267-1.451c0.185-0.461 0.461-0.879 0.81-1.231s0.766-0.628 1.224-0.814 0.949-0.277 1.443-0.269c0.494 0.009 0.981 0.118 1.433 0.32s0.858 0.494 1.195 0.857l10.275 10.325 17.042-21.83c0.031-0.038 0.063-0.074 0.098-0.109h-0.005z"></path>
</symbol>
<symbol id="menu-toggle" viewBox="0 0 47 32">
<path stroke-linejoin="round" stroke-linecap="round" stroke-miterlimit="4" stroke-width="4.3636" d="M1.96 29.154h42.965M1.96 15.615h42.965M1.96 2.077h42.965"></path>
</symbol>
<symbol id="icon-map-pin" viewBox="0 0 24 24">
<path d="M22 10c0-2.761-1.12-5.263-2.929-7.071s-4.31-2.929-7.071-2.929-5.263 1.12-7.071 2.929-2.929 4.31-2.929 7.071c0 0.569 0.053 1.128 0.15 1.676 0.274 1.548 0.899 3.004 1.682 4.32 2.732 4.591 7.613 7.836 7.613 7.836 0.331 0.217 0.765 0.229 1.109 0 0 0 4.882-3.245 7.613-7.836 0.783-1.316 1.408-2.772 1.682-4.32 0.098-0.548 0.151-1.107 0.151-1.676zM20 10c0 0.444-0.041 0.887-0.119 1.328-0.221 1.25-0.737 2.478-1.432 3.646-1.912 3.214-5.036 5.747-6.369 6.74-1.398-0.916-4.588-3.477-6.53-6.74-0.695-1.168-1.211-2.396-1.432-3.646-0.077-0.441-0.118-0.884-0.118-1.328 0-2.209 0.894-4.208 2.343-5.657s3.448-2.343 5.657-2.343 4.208 0.894 5.657 2.343 2.343 3.448 2.343 5.657zM16 10c0-1.104-0.449-2.106-1.172-2.828s-1.724-1.172-2.828-1.172-2.106 0.449-2.828 1.172-1.172 1.724-1.172 2.828 0.449 2.106 1.172 2.828 1.724 1.172 2.828 1.172 2.106-0.449 2.828-1.172 1.172-1.724 1.172-2.828zM14 10c0 0.553-0.223 1.051-0.586 1.414s-0.861 0.586-1.414 0.586-1.051-0.223-1.414-0.586-0.586-0.861-0.586-1.414 0.223-1.051 0.586-1.414 0.861-0.586 1.414-0.586 1.051 0.223 1.414 0.586 0.586 0.861 0.586 1.414z"></path>
</symbol>
<symbol id="icon-phone" viewBox="0 0 24 24">
<path d="M23 16.92c0.016-0.714-0.236-1.404-0.673-1.943-0.46-0.566-1.129-0.967-1.925-1.080-0.8-0.098-1.695-0.314-2.586-0.646-0.433-0.159-0.893-0.218-1.344-0.174-0.663 0.064-1.307 0.349-1.819 0.855l-0.72 0.72c-1.77-1.117-3.36-2.667-4.583-4.589l0.726-0.726c0.322-0.33 0.563-0.726 0.707-1.156 0.212-0.632 0.214-1.336-0.039-2.011-0.289-0.753-0.518-1.644-0.644-2.595-0.104-0.714-0.456-1.345-0.963-1.804-0.539-0.486-1.256-0.779-2.027-0.771h-2.996c-0.088 0-0.182 0.004-0.273 0.012-0.824 0.075-1.542 0.478-2.033 1.066s-0.758 1.367-0.683 2.199c0.3 3.076 1.365 6.243 3.216 9.102 1.502 2.413 3.648 4.623 6.298 6.306 2.568 1.697 5.684 2.862 9.086 3.231 0.092 0.009 0.191 0.013 0.288 0.013 0.828-0.003 1.578-0.343 2.118-0.887s0.873-1.297 0.87-2.121zM21 16.92v3c0.001 0.28-0.109 0.53-0.29 0.712s-0.429 0.295-0.706 0.296c-3.149-0.336-5.961-1.391-8.263-2.912-2.428-1.543-4.359-3.537-5.702-5.694-1.697-2.62-2.655-5.481-2.924-8.238-0.024-0.268 0.064-0.526 0.229-0.724s0.403-0.33 0.678-0.355l3.088-0.005c0.271-0.003 0.507 0.094 0.687 0.256 0.17 0.154 0.288 0.366 0.323 0.608 0.142 1.072 0.408 2.117 0.757 3.025 0.081 0.216 0.080 0.447 0.010 0.658-0.049 0.145-0.131 0.281-0.242 0.395l-1.262 1.261c-0.324 0.324-0.379 0.814-0.162 1.201 1.584 2.785 3.839 4.957 6.381 6.378 0.397 0.222 0.882 0.144 1.195-0.166l1.27-1.27c0.166-0.164 0.377-0.257 0.598-0.279 0.152-0.015 0.31 0.005 0.459 0.060 1.022 0.381 2.070 0.636 3.034 0.754 0.241 0.034 0.462 0.166 0.615 0.355 0.147 0.181 0.231 0.412 0.226 0.682z"></path>
</symbol>
<symbol id="icon-mail" viewBox="0 0 24 24">
<path d="M3 7.921l8.427 5.899c0.34 0.235 0.795 0.246 1.147 0l8.426-5.899v10.079c0 0.272-0.11 0.521-0.295 0.705s-0.433 0.295-0.705 0.295h-16c-0.272 0-0.521-0.11-0.705-0.295s-0.295-0.433-0.295-0.705zM1 5.983c0 0.010 0 0.020 0 0.030v11.987c0 0.828 0.34 1.579 0.88 2.12s1.292 0.88 2.12 0.88h16c0.828 0 1.579-0.34 2.12-0.88s0.88-1.292 0.88-2.12v-11.988c0-0.010 0-0.020 0-0.030-0.005-0.821-0.343-1.565-0.88-2.102-0.541-0.54-1.292-0.88-2.12-0.88h-16c-0.828 0-1.579 0.34-2.12 0.88-0.537 0.537-0.875 1.281-0.88 2.103zM20.894 5.554l-8.894 6.225-8.894-6.225c0.048-0.096 0.112-0.183 0.188-0.259 0.185-0.185 0.434-0.295 0.706-0.295h16c0.272 0 0.521 0.11 0.705 0.295 0.076 0.076 0.14 0.164 0.188 0.259z"></path>
</symbol>
<symbol id="icon-logo" viewBox="0 0 70 56">
  <path d="M39.7572 17.0343L38.4269 15.8804C36.5172 14.1795 34.1697 13.25 31.75 13.25C29.3303 13.25 26.9828 14.1795 25.0731 15.8804L23.7428 17.0343C22.7348 17.9471 21.4211 18.4375 20.0625 18.4375H18.375C14.6943 18.4375 11.8125 21.3193 11.8125 25V40.25C11.8125 43.9307 14.6943 46.8125 18.375 46.8125H45.125C48.8057 46.8125 51.6875 43.9307 51.6875 40.25V25C51.6875 21.3193 48.8057 18.4375 45.125 18.4375H43.4375C42.0789 18.4375 40.7652 17.9471 39.7572 17.0343Z" fill="currentColor"/>
  <path d="M45.125 15.3125C48.5865 15.3125 51.6875 17.8837 51.6875 22.25V40.25C51.6875 45.1435 48.5185 48.4375 45.125 48.4375H18.375C14.9815 48.4375 11.8125 45.1435 11.8125 40.25V22.25C11.8125 17.8837 14.9135 15.3125 18.375 15.3125H20.0625C20.9894 15.3125 21.8388 14.9749 22.5111 14.3553L23.8415 13.2015C26.0668 11.1977 28.8429 10.1875 31.75 10.1875C34.6571 10.1875 37.4332 11.1977 39.6585 13.2015L40.9889 14.3553C41.6612 14.9749 42.5106 15.3125 43.4375 15.3125H45.125ZM31.75 11.8125C29.1723 11.8125 26.7566 12.7256 24.854 14.4579L23.5236 15.6117C22.426 16.5991 20.9344 17.1875 20.0625 17.1875H18.375C15.2354 17.1875 13.4375 19.2648 13.4375 22.25V40.25C13.4375 44.0936 15.9632 46.8125 18.375 46.8125H45.125C47.5368 46.8125 50.0625 44.0936 50.0625 40.25V22.25C50.0625 19.2648 48.2646 17.1875 45.125 17.1875H43.4375C42.5656 17.1875 41.074 16.5991 39.9764 15.6117L38.646 14.4579C36.7434 12.7256 34.3277 11.8125 31.75 11.8125Z" fill="currentColor"/>
</symbol>
</defs>
</svg>

<svg width="70" height="56" viewBox="0 0 70 56" fill="none" xmlns="http://www.w3.org/2000/svg">
<g clip-path="url(#clip0_1374_705)">
<path d="M39.7572 17.0343L38.4269 16.0246C38.219 15.8572 37.953 15.7781 37.6868 15.8046C37.4206 15.831 37.1756 15.9609 37.0052 16.1659L18.5938 37.1886L18.8781 37.5017L23.4378 33.3213C23.2858 33.2605 23.1601 33.1487 23.0824 33.0053C23.0048 32.8619 22.9801 32.696 23.0127 32.5364C23.0453 32.3768 23.1331 32.2336 23.2608 32.1316C23.3886 32.0297 23.5482 31.9755 23.712 31.9784C23.8597 31.9784 24.0035 32.0254 24.1223 32.1127C24.2411 32.1999 24.3286 32.3227 24.3721 32.4631L30.384 26.9196C30.476 26.8459 30.5907 26.8056 30.7089 26.8056C30.8272 26.8056 30.9418 26.8459 31.0339 26.9196L31.3386 27.1418C31.4416 27.2152 31.5686 27.2476 31.6945 27.2327C31.8204 27.2177 31.9362 27.1565 32.019 27.061L39.8791 18.2965C39.9627 18.2095 40.0264 18.1056 40.066 17.9919C40.1055 17.8782 40.12 17.7574 40.1085 17.6377C40.0969 17.5179 40.0596 17.4021 39.9989 17.2979C39.9383 17.1938 39.8559 17.1039 39.7572 17.0343Z" fill="white"/>
<path d="M48.4099 22.9513C44.3808 25.8018 39.8672 27.9055 35.0862 29.1612C30.3412 30.3611 25.4857 31.0783 20.5947 31.3018C20.6932 32.019 20.8703 32.7232 21.1228 33.4021C23.885 35.886 44.6829 31.6451 48.745 26.7378C49.6082 25.718 48.4099 22.9513 48.4099 22.9513ZM23.7124 33.3213C23.5758 33.3213 23.4423 33.281 23.3287 33.2056C23.2152 33.1301 23.1267 33.0229 23.0744 32.8974C23.0221 32.772 23.0084 32.6339 23.0351 32.5007C23.0617 32.3675 23.1275 32.2452 23.2241 32.1492C23.3207 32.0531 23.4437 31.9877 23.5777 31.9612C23.7116 31.9347 23.8505 31.9483 23.9766 32.0003C24.1028 32.0523 24.2107 32.1403 24.2866 32.2532C24.3624 32.3661 24.4029 32.4989 24.4029 32.6347C24.4043 32.7252 24.3874 32.8151 24.3532 32.899C24.3189 32.9829 24.2681 33.0592 24.2037 33.1232C24.1393 33.1873 24.0627 33.2378 23.9783 33.2718C23.8939 33.3058 23.8034 33.3227 23.7124 33.3213Z" fill="white"/>
<path d="M4.06215 21.4972L4.22464 20.8005L6.865 21.3962C7.08283 21.7963 7.21752 22.2358 7.26105 22.6887C7.31145 23.1683 7.28055 23.653 7.16965 24.1225C7.0382 24.774 6.73705 25.3799 6.2963 25.8794C5.87698 26.3511 5.3363 26.7002 4.7324 26.8892C4.10998 27.08 3.44797 27.1044 2.81306 26.9599C2.17675 26.8232 1.59023 26.5159 1.11714 26.0713C0.651285 25.6442 0.316768 25.0945 0.15239 24.486C-0.0299633 23.825 -0.0299633 23.1275 0.15239 22.4665C0.261536 21.9718 0.45748 21.5002 0.731238 21.0731C0.990337 20.6847 1.33836 20.3628 1.74676 20.134L2.11235 20.6894C1.7623 20.9031 1.46183 21.1882 1.23076 21.5258C0.999685 21.8635 0.843278 22.2461 0.771859 22.6483C0.64592 23.1706 0.656408 23.7164 0.802324 24.2336C0.93878 24.7247 1.20945 25.1685 1.58428 25.5159C1.96955 25.8862 2.45157 26.1416 2.97554 26.253C3.48364 26.3949 4.0212 26.3949 4.52929 26.253C5.01602 26.0933 5.45319 25.8116 5.7987 25.4352C6.15377 25.0285 6.39846 24.5385 6.50956 24.0114C6.67665 23.3721 6.63395 22.6964 6.3877 22.0828L4.06215 21.4972Z" fill="white"/>
<path d="M9.8096 15.1461L7.44343 18.2864L8.45895 20.0938L7.99181 20.7198L4.23438 13.9041L4.67105 13.3083L12.3179 14.9441L11.8406 15.5702L9.8096 15.1461ZM9.13935 14.9845L5.07726 14.0757L7.1083 17.7007L9.13935 14.9845Z" fill="white"/>
<path d="M9.13965 8.63321L9.74896 8.17883L13.6181 13.3285L16.8068 10.9556L17.1927 11.4706L13.4048 14.2877L9.13965 8.63321Z" fill="white"/>
<path d="M15.5371 4.42267L16.2175 4.11975L18.8985 9.95603L22.5239 8.32026L22.7879 8.9059L18.4821 10.8547L15.5371 4.42267Z" fill="white"/>
<path d="M28.922 6.74504L29.0743 7.38117L24.1795 8.52217L22.5547 1.63577L27.3073 0.535156L27.4495 1.16119L23.3874 2.10025L23.9663 4.54381L27.5409 3.70573L27.6932 4.33177L24.1084 5.15975L24.7178 7.71438L28.922 6.74504Z" fill="white"/>
<path d="M35.8983 6.99757L34.2024 4.77615C34.013 4.78657 33.8231 4.78657 33.6337 4.77615L31.7245 4.83674L31.7956 7.07835H31.0441L30.8105 0.0101965L33.5118 9.90983e-05C34.2756 -0.0700353 35.0393 0.134144 35.6647 0.575649C35.9283 0.786678 36.1402 1.05448 36.2845 1.35883C36.4287 1.66319 36.5016 1.99615 36.4975 2.33259C36.5271 2.83159 36.3955 3.32694 36.1217 3.74622C35.8299 4.14866 35.4176 4.44907 34.9437 4.6045L36.7209 6.96728L35.8983 6.99757ZM35.1875 3.67554C35.37 3.50928 35.5116 3.30353 35.6014 3.07417C35.6912 2.84481 35.7268 2.59799 35.7054 2.35279C35.7106 2.10628 35.6594 1.86182 35.5556 1.6379C35.4518 1.41398 35.2981 1.21647 35.1062 1.06032C34.6382 0.744759 34.0753 0.598609 33.5118 0.646331L31.5823 0.717012L31.7042 4.25109L33.5931 4.19051C34.1691 4.2117 34.734 4.02924 35.1875 3.67554Z" fill="white"/>
<path d="M41.2708 5.11937L40.9052 7.53264L40.1639 7.42157L40.5396 5.04868L38.4375 0L39.2296 0.121168L41.0271 4.42265L44.0737 0.858276L44.7845 1.00974L41.2708 5.11937Z" fill="white"/>
<path d="M51.3144 4.69524L52.1979 5.83624L51.812 6.13916L50.9285 4.96786L50.37 6.29062L49.9435 6.10887L50.5122 4.78611L49.0498 4.97796V4.49329L50.4918 4.33173L49.5982 3.19073L49.9942 2.88781L50.7762 4.03891L51.3246 2.70605L51.7613 2.88781L51.2433 4.24085L52.7057 4.03891V4.53368L51.3144 4.69524Z" fill="white"/>
<path d="M54.7062 12.8338C54.4664 12.4661 54.3168 12.0476 54.2695 11.612L54.8687 11.3494C54.9136 11.7497 55.0453 12.1355 55.2546 12.4803C55.4814 12.867 55.7774 13.2092 56.1279 13.4901C56.4899 13.8347 56.9518 14.0573 57.4481 14.1262C57.6274 14.1427 57.8081 14.1155 57.9745 14.0469C58.1408 13.9783 58.2878 13.8703 58.4027 13.7324C58.4869 13.64 58.5511 13.5314 58.5913 13.4133C58.6315 13.2951 58.6468 13.1701 58.6363 13.0458C58.6027 12.7997 58.5198 12.5628 58.3926 12.3491C58.2017 12.0392 57.9949 11.7392 57.7731 11.4504C57.5027 11.0982 57.2584 10.727 57.0419 10.3397C56.8765 10.0498 56.7858 9.72375 56.7779 9.39055C56.7772 9.01637 56.9186 8.65573 57.1739 8.38082C57.3952 8.11438 57.6873 7.91498 58.0168 7.80527C58.385 7.69951 58.7758 7.69951 59.144 7.80527C59.6185 7.95953 60.057 8.20673 60.4338 8.53228C60.7464 8.79084 61.023 9.08966 61.2563 9.42084C61.4721 9.72797 61.6335 10.0695 61.7336 10.4306L61.1548 10.7335C61.0538 10.3969 60.9032 10.077 60.7079 9.78435C60.5134 9.52298 60.2846 9.28866 60.0275 9.08763C59.6709 8.74457 59.2105 8.52807 58.7175 8.47169C58.5364 8.45663 58.3543 8.48658 58.1877 8.55884C58.021 8.63111 57.8751 8.74342 57.7629 8.88568C57.6766 8.97665 57.611 9.0851 57.5707 9.2036C57.5303 9.32211 57.5163 9.44788 57.5294 9.5723C57.5531 9.82693 57.6366 10.0725 57.7731 10.2892C57.9153 10.5215 58.1184 10.8244 58.3926 11.1879C58.6644 11.532 58.9088 11.8966 59.1237 12.2784C59.2927 12.5673 59.3869 12.8935 59.3979 13.2276C59.3986 13.6017 59.2572 13.9624 59.0019 14.2373C58.7797 14.5074 58.4833 14.7074 58.1488 14.8128C57.7813 14.9232 57.3891 14.9232 57.0216 14.8128C56.5439 14.659 56.102 14.4119 55.7217 14.0858C55.3118 13.7311 54.968 13.3072 54.7062 12.8338Z" fill="white"/>
<path d="M64.9217 14.308L63.4898 12.2885L64.0179 11.9149L67.3184 16.6001L66.7903 16.9737L65.3584 14.9542L60.0574 18.6398L59.6309 18.0238L64.9217 14.308Z" fill="white"/>
<path d="M62.6477 22.608C62.829 21.9977 63.1812 21.4514 63.6632 21.0328C64.1347 20.6129 64.7091 20.3239 65.3287 20.1947C65.9602 20.0506 66.6188 20.0749 67.2378 20.2654C67.8353 20.4618 68.3709 20.8098 68.7916 21.2751C69.2291 21.7755 69.5267 22.3814 69.6548 23.0321C69.823 23.6709 69.823 24.342 69.6548 24.9809C69.4685 25.5888 69.1171 26.1339 68.6393 26.5561C68.1547 26.9873 67.5661 27.2864 66.9308 27.4244C66.2955 27.5625 65.6351 27.5346 65.0138 27.3437C64.4118 27.1568 63.8739 26.8072 63.4601 26.3339C63.0246 25.8361 62.7271 25.234 62.5969 24.5871C62.4418 23.9341 62.4593 23.2523 62.6477 22.608ZM63.978 25.8189C64.3171 26.2029 64.7564 26.486 65.2474 26.6368C65.7535 26.7828 66.2883 26.8001 66.8028 26.6872C67.3173 26.5743 67.7952 26.3348 68.1924 25.9906C68.5673 25.6477 68.8441 25.2122 68.9947 24.7284C69.1363 24.2176 69.1502 23.6801 69.0351 23.1627C68.9201 22.6453 68.6796 22.1637 68.3346 21.7598C67.9806 21.374 67.5278 21.0913 67.0246 20.9419C66.5122 20.8066 65.9731 20.8066 65.4607 20.9419C64.9436 21.0406 64.465 21.282 64.0796 21.6386C63.7013 21.9827 63.424 22.4225 63.2773 22.9109C63.1394 23.4236 63.1394 23.9633 63.2773 24.476C63.3885 24.977 63.6302 25.4401 63.978 25.8189Z" fill="white"/>
<path d="M61.8756 34.331L64.5058 33.3213C64.5058 33.1395 64.5667 32.9578 64.6175 32.7659L65.1151 30.9383L62.9622 30.3829L63.1551 29.666L70.0201 31.4936L69.3295 34.0483C69.1739 34.7937 68.7563 35.4596 68.1515 35.9264C67.8736 36.1183 67.5548 36.2436 67.2201 36.2927C66.8854 36.3417 66.5438 36.3131 66.222 36.2091C65.7319 36.1034 65.2928 35.8347 64.9771 35.4474C64.6613 35.06 64.4879 34.5772 64.4855 34.0786L61.6826 35.0883L61.8756 34.331ZM65.2776 34.6137C65.3965 34.8283 65.5579 35.0168 65.752 35.1678C65.9461 35.3188 66.1689 35.4292 66.407 35.4924C66.6451 35.5556 66.8936 35.5702 67.1375 35.5355C67.3815 35.5008 67.6158 35.4173 67.8265 35.2903C68.2748 34.9323 68.5807 34.4278 68.6897 33.8665L69.1772 32.049L65.7346 31.1301L65.2471 32.9477C65.0597 33.4893 65.0705 34.0792 65.2776 34.6137Z" fill="white"/>
<path d="M58.2298 40.8338L57.7119 40.44L60.7585 36.4515L66.4251 40.7227L63.4801 44.59L62.9622 44.1962L65.4502 40.9348L63.4192 39.4101L61.1952 42.3282L60.6874 41.9445L62.9622 39.0264L60.86 37.4411L58.2298 40.8338Z" fill="white"/>
<path d="M55.8545 48.8814L54.4023 48.9622V48.4776L55.8545 48.4675L55.0726 47.2659L55.4686 47.0134L56.2404 48.2251L56.8701 46.8721L57.3067 47.1043L56.6162 48.3766L58.0684 48.2958V48.7906H56.5959L57.3778 49.9922L56.9818 50.2446L56.21 49.0329L55.5397 50.3456L55.1132 50.1032L55.8545 48.8814Z" fill="white"/>
<path d="M42.6517 48.0735L43.8805 48.7501C44.0865 48.3566 44.374 48.011 44.7241 47.736C45.0742 47.461 45.4789 47.2629 45.9116 47.1547C46.3152 47.0295 46.7397 46.9849 47.1607 47.0234C47.5259 47.0513 47.8768 47.1769 48.1762 47.3869C48.4468 47.5897 48.6458 47.8725 48.7449 48.1947C48.8673 48.5933 48.8457 49.0219 48.6839 49.4064C48.4291 49.9288 48.0856 50.4036 47.6684 50.8099C48.0032 50.9888 48.3138 51.2094 48.5925 51.4663C48.784 51.6631 48.9266 51.9016 49.0089 52.163C49.0609 52.3667 49.0642 52.5797 49.0183 52.7849C48.9725 52.9901 48.8788 53.1817 48.7449 53.3444C48.4738 53.7327 48.0693 54.0093 47.6075 54.1219C47.202 54.2756 46.7537 54.2756 46.3482 54.1219C46.1679 54.0447 46.008 53.9271 45.8812 53.7782C45.7543 53.6293 45.6639 53.4531 45.6171 53.2636C45.5106 52.9303 45.536 52.5691 45.6881 52.2538C45.9212 51.7948 46.2263 51.3756 46.592 51.0119L44.1445 49.6588C44.0512 50.1343 44.0306 50.6211 44.0836 51.1027H43.4641C43.4224 50.5097 43.4913 49.914 43.6673 49.3458L42.3877 48.639L42.6517 48.0735ZM44.4187 49.0833L47.1099 50.5676C47.4626 50.2327 47.7546 49.8399 47.9731 49.4064C48.0846 49.1136 48.0846 48.7904 47.9731 48.4976C47.927 48.3227 47.8379 48.1619 47.7138 48.0297C47.5898 47.8975 47.4346 47.7981 47.2622 47.7403C46.8406 47.5987 46.3839 47.5987 45.9623 47.7403C45.6178 47.8307 45.2974 47.9951 45.0237 48.2218C44.75 48.4486 44.5296 48.7323 44.3781 49.053L44.4187 49.0833ZM48.2371 53.1222C48.3035 53.0106 48.345 52.8862 48.3591 52.7574C48.3731 52.6285 48.3592 52.4981 48.3183 52.375C48.2561 52.1756 48.1444 51.995 47.9934 51.8499C47.7349 51.6331 47.452 51.4468 47.1505 51.2946C46.8426 51.5973 46.5732 51.9364 46.3482 52.3043C46.2255 52.5337 46.1964 52.8014 46.267 53.0515C46.2992 53.1671 46.3557 53.2745 46.4327 53.3668C46.5097 53.459 46.6055 53.534 46.7138 53.5867C46.9724 53.6836 47.2575 53.6836 47.5161 53.5867C47.7922 53.5135 48.0332 53.3453 48.1965 53.1121L48.2371 53.1222Z" fill="white"/>
<path d="M30.2725 55.8586L30.4146 48.7904H31.1357L31.0239 54.4449L33.908 49.7396H34.2635L36.9648 54.5257L37.0663 48.9015H37.7873L37.6553 55.9696H37.0358L34.0502 50.6887L30.8919 55.8687L30.2725 55.8586Z" fill="white"/>
<path d="M26.7384 48.4674C27.2028 48.9075 27.5351 49.4672 27.6983 50.0841C27.8615 50.701 27.8491 51.3508 27.6626 51.9611C27.4957 52.586 27.1624 53.1546 26.6978 53.607C26.2463 54.0483 25.6802 54.3559 25.0628 54.4955C24.4116 54.6416 23.7337 54.6208 23.0927 54.435C22.4539 54.2798 21.8663 53.9633 21.3866 53.5161C20.9292 53.0816 20.6022 52.5293 20.4422 51.9207C20.286 51.2916 20.2976 50.6329 20.4756 50.0096C20.6537 49.3863 20.9922 48.8199 21.4577 48.3664C21.9012 47.9263 22.4553 47.6125 23.0623 47.4577C23.7101 47.312 24.3847 47.3329 25.0222 47.5183C25.6676 47.6809 26.2591 48.008 26.7384 48.4674ZM23.2755 48.114C22.7788 48.229 22.3247 48.481 21.9655 48.841C21.5914 49.2115 21.3248 49.6754 21.1937 50.184C21.0521 50.6893 21.0521 51.2235 21.1937 51.7289C21.3135 52.2205 21.5704 52.6685 21.935 53.0213C22.3174 53.3931 22.7895 53.6609 23.306 53.7988C23.8224 53.9296 24.3636 53.9296 24.88 53.7988C25.3772 53.6773 25.8329 53.4264 26.2002 53.0718C26.5723 52.6998 26.8386 52.2365 26.972 51.7289C27.114 51.2201 27.114 50.6826 26.972 50.1739C26.842 49.6841 26.5826 49.2378 26.2205 48.8814C25.8362 48.5091 25.3597 48.2444 24.8394 48.114C24.3277 47.9734 23.7872 47.9734 23.2755 48.114Z" fill="white"/>
<path d="M15.5875 43.4187L15.8617 46.1955C16.0359 46.2694 16.2055 46.3537 16.3695 46.4479L18.0248 47.3971L19.1419 45.4382L19.8019 45.8118L16.2476 51.9005L13.9322 50.5777C13.2478 50.2359 12.708 49.6633 12.4089 48.9622C12.2985 48.6463 12.2613 48.3097 12.3 47.9775C12.3387 47.6453 12.4523 47.3261 12.6324 47.0437C12.8684 46.6011 13.2426 46.2468 13.6987 46.0339C14.1618 45.8431 14.6741 45.8042 15.161 45.9228L14.8665 42.9542L15.5875 43.4187ZM14.4298 46.6095C14.1913 46.669 13.9673 46.7757 13.7713 46.9233C13.5752 47.0709 13.4111 47.2563 13.2888 47.4684C13.1665 47.6805 13.0885 47.915 13.0594 48.1577C13.0304 48.4005 13.0509 48.6467 13.1198 48.8814C13.3578 49.404 13.7705 49.8286 14.2877 50.083L15.9226 51.022L17.6998 47.9928L16.0648 47.0538C15.5949 46.7036 15.0163 46.5285 14.4298 46.559V46.6095Z" fill="white"/>
<path d="M9.57592 38.683L10.0329 38.2286L13.5365 41.8132L8.45884 46.7407L5.07715 43.2672L5.54429 42.8128L8.41822 45.7512L10.1548 44.0043L7.63627 41.3992L8.12372 40.9347L10.693 43.56L12.5819 41.7324L9.57592 38.683Z" fill="white"/>
<path d="M2.03167 34.7147L2.27539 33.3213L2.75269 33.392L2.4785 34.8258L3.82914 34.331L3.99163 34.7753L2.62067 35.2398L3.7479 36.1889L3.42293 36.5524L2.33633 35.5427L2.08244 36.9765L1.59499 36.8857L1.87934 35.4518L0.518539 35.9365L0.366211 35.5427L1.72701 35.0681L0.599781 34.1291L0.934904 33.7656L2.03167 34.7147Z" fill="white"/>
</g>
<defs>
<clipPath id="clip0_1374_705">
<rect width="70" height="56" fill="white"/>
</clipPath>
</defs>
</svg>